<svg xmlns="http://www.w3.org/2000/svg" viewBox="0 0 1200 560" width="1200" height="560">
<defs>
  <linearGradient id="gold" x1="0" y1="0" x2="0" y2="1">
    <stop offset="0" stop-color="#E9D2B3"/>
    <stop offset="0.45" stop-color="#C9A87E"/>
    <stop offset="0.75" stop-color="#A07858"/>
    <stop offset="1" stop-color="#6E4B2C"/>
  </linearGradient>
</defs>

<g transform="translate(132.0,58) scale(1.6)"><g transform="translate(0.000000,226.000000) scale(0.100000,-0.100000)" fill="#FFFFFF" stroke="none">
<path d="M4563 2011 c-18 -15 -34 -18 -85 -14 -149 12 -508 -36 -753 -101
-407 -108 -801 -275 -1260 -531 -230 -129 -512 -330 -699 -499 -194 -174 -302
-373 -268 -491 7 -24 8 -17 8 35 0 192 231 448 674 749 568 385 1293 692 1841
781 245 39 519 46 519 14 0 -23 38 -54 65 -54 14 0 37 12 52 26 24 24 27 25
77 13 131 -31 243 -115 266 -199 30 -113 -41 -266 -204 -439 -48 -51 -49 -53
-11 -24 83 64 151 151 202 259 32 67 38 89 38 144 -1 134 -95 228 -275 275
-43 11 -72 26 -91 46 -31 33 -64 37 -96 10z M268 1155 c-3 -4 -7 -231 -7 -506
l-2 -499 41 0 40 0 0 326 c0 199 4 323 9 319 5 -3 49 -58 98 -123 201 -268
315 -412 323 -407 8 5 347 464 371 503 8 12 16 22 19 22 3 0 5 -143 5 -317 l0
-318 88 -3 87 -3 0 508 -1 508 -27 -34 c-29 -36 -231 -311 -372 -506 -47 -65
-92 -126 -100 -136 -16 -20 -49 19 -449 526 -114 145 -116 147 -123 140z
M2261 987 c-52 -84 -141 -226 -196 -317 -56 -91 -148 -240 -204 -332 -57 -93
-107 -168 -112 -168 -5 0 -9 -4 -9 -10 0 -6 35 -10 84 -10 l83 0 93 148 c51
81 146 230 210 332 64 102 122 195 129 208 16 31 22 28 50 -21 13 -23 52 -85
86 -137 33 -52 123 -193 200 -312 l139 -218 90 0 c88 0 90 1 69 18 -12 9 -80
114 -151 232 -71 118 -158 260 -192 315 -144 229 -253 401 -264 412 -8 9 -34
-25 -105 -140z M4998 1115 c-105 -26 -190 -83 -224 -146 -46 -88 -34 -197 28
-255 69 -65 151 -97 443 -174 182 -48 245 -95 245 -183 0 -110 -120 -187 -293
-187 -154 0 -247 40 -359 152 l-78 77 0 -80 0 -80 76 -35 c121 -56 210 -75
359 -77 188 -1 305 35 387 120 92 95 91 219 -4 310 -49 47 -147 87 -335 137
-216 57 -272 78 -312 120 -57 59 -52 146 12 207 41 39 107 61 202 66 79 5 100
2 168 -21 95 -32 146 -63 209 -129 l49 -51 -3 69 -3 70 -50 27 c-96 53 -168
70 -320 74 -101 3 -156 0 -197 -11z M3350 628 l0 -483 85 3 85 3 0 455 0 454
198 0 c153 0 211 -4 253 -16 162 -48 214 -250 95 -369 -52 -51 -110 -72 -229
-83 l-87 -7 28 -30 c15 -16 90 -100 166 -185 76 -85 153 -171 170 -190 l32
-35 130 3 c127 3 129 4 97 20 -17 9 -44 29 -60 43 -27 25 -214 223 -286 305
l-37 41 63 13 c179 35 275 137 265 282 -9 139 -121 224 -325 248 -49 5 -213
10 -365 10 l-278 0 0 -482z M2351 475 c-2 -107 -8 -127 -35 -119 -19 6 -19 5
-7 -10 20 -24 9 -29 -72 -36 l-72 -6 70 -8 c39 -4 73 -10 77 -13 4 -2 0 -16
-9 -31 l-17 -27 26 23 25 23 7 -32 c3 -17 6 -48 7 -68 0 -29 2 -32 9 -16 5 11
9 37 9 57 1 42 15 56 38 36 15 -12 15 -11 2 9 -7 12 -11 25 -8 28 4 3 37 9 75
12 l69 7 -68 7 c-38 4 -71 10 -74 12 -2 3 1 16 8 29 11 21 11 22 -4 10 -26
-22 -37 -5 -38 56 0 31 -4 75 -8 97 -8 35 -9 30 -10 -40z"/>
</g></g>
<line x1="222.0" y1="460.2344788412383" x2="262.0" y2="460.2344788412383" stroke="#FFFFFF" stroke-width="2.5"/>
<line x1="938.0" y1="460.2344788412383" x2="978.0" y2="460.2344788412383" stroke="#FFFFFF" stroke-width="2.5"/>
<g transform="translate(280.0,453.6) scale(0.18176654359556943)"><g transform="translate(0.000000,73.000000) scale(0.100000,-0.100000)" fill="#FFFFFF" stroke="none">
<path d="M287 680 c-94 -24 -175 -90 -218 -176 -20 -41 -24 -64 -24 -139 0
-75 4 -98 24 -139 33 -66 91 -122 160 -154 47 -23 70 -27 146 -27 76 0 98 4
145 26 53 26 100 62 100 78 0 8 -36 43 -57 55 -6 3 -34 -8 -63 -26 -100 -62
-237 -35 -305 61 -28 39 -30 50 -30 126 0 76 2 87 30 126 68 96 205 123 306
60 l51 -32 34 26 c19 14 34 32 34 39 0 16 -60 59 -114 81 -48 20 -166 28 -219
15z M1110 376 l0 -316 60 0 60 0 0 90 0 91 87 -3 87 -3 61 -87 60 -87 63 -1
c48 0 61 3 56 12 -5 7 -36 53 -71 102 l-63 89 28 17 c71 43 107 118 100 210
-6 81 -40 129 -115 167 -56 27 -64 28 -235 31 l-178 4 0 -316z m346 198 c47
-22 64 -50 64 -102 0 -98 -52 -132 -200 -132 l-90 0 0 125 0 125 96 0 c68 0
106 -5 130 -16z M2150 375 l0 -315 240 0 240 0 0 50 0 50 -180 0 -180 0 0 85
0 84 153 3 152 3 0 45 0 45 -152 3 -153 3 0 79 0 80 170 0 170 0 0 50 0 50
-230 0 -230 0 0 -315z M3337 683 c-9 -15 -277 -613 -277 -618 0 -3 26 -5 59
-5 l58 0 31 73 30 72 158 0 158 0 31 -72 30 -73 62 0 62 0 -85 188 c-47 103
-111 244 -142 315 l-57 127 -57 0 c-31 0 -59 -3 -61 -7z m123 -259 c28 -64 49
-119 47 -121 -3 -2 -54 -2 -115 -1 l-110 3 56 132 c38 89 59 128 64 119 4 -8
31 -67 58 -132z M4120 640 l0 -50 105 0 105 0 0 -265 0 -265 60 0 60 0 0 265
0 265 105 0 105 0 0 50 0 50 -270 0 -270 0 0 -50z M5120 375 l0 -315 60 0 60
0 0 315 0 315 -60 0 -60 0 0 -315z M5720 685 c0 -3 60 -144 134 -313 l134
-307 59 -3 59 -3 133 308 c74 169 136 311 138 316 2 4 -22 7 -55 7 l-58 0
-105 -239 c-57 -132 -106 -237 -109 -234 -3 2 -50 109 -105 236 l-101 232 -62
3 c-34 2 -62 0 -62 -3z M6850 375 l0 -315 240 0 240 0 0 50 0 50 -180 0 -180
0 0 85 0 84 153 3 152 3 0 45 0 45 -152 3 -153 3 0 79 0 80 170 0 170 0 0 50
0 50 -230 0 -230 0 0 -315z M8817 683 c-9 -15 -277 -613 -277 -618 0 -3 26 -5
59 -5 l58 0 31 73 30 72 158 0 158 0 31 -72 30 -73 62 0 62 0 -85 188 c-47
103 -111 244 -142 315 l-57 127 -57 0 c-31 0 -59 -3 -61 -7z m123 -259 c28
-64 49 -119 47 -121 -3 -2 -54 -2 -115 -1 l-110 3 56 132 c38 89 59 128 64
119 4 -8 31 -67 58 -132z M9885 677 c-100 -26 -172 -84 -216 -173 -20 -41 -24
-64 -24 -139 0 -105 22 -162 88 -228 108 -108 309 -126 454 -41 l43 25 0 124
0 125 -60 0 -60 0 0 -99 0 -99 -32 -13 c-53 -22 -149 -17 -205 12 -72 38 -106
93 -111 179 -3 57 0 78 18 115 58 120 223 158 344 78 l39 -25 34 35 35 34 -23
23 c-67 64 -216 95 -324 67z M10750 375 l0 -315 240 0 240 0 0 50 0 50 -180 0
-180 0 0 85 0 84 153 3 152 3 0 45 0 45 -152 3 -153 3 0 79 0 80 170 0 170 0
0 50 0 50 -230 0 -230 0 0 -315z M11730 375 l0 -315 60 0 60 0 2 211 3 211
170 -211 170 -210 48 -1 47 0 0 315 0 315 -55 0 -55 0 -2 -212 -3 -211 -170
211 -170 211 -52 0 -53 1 0 -315z M13047 680 c-94 -24 -175 -90 -218 -176 -20
-41 -24 -64 -24 -139 0 -75 4 -98 24 -139 33 -66 91 -122 160 -154 47 -23 70
-27 146 -27 76 0 98 4 145 26 53 26 100 62 100 78 0 8 -36 43 -57 55 -6 3 -34
-8 -63 -26 -100 -62 -237 -35 -305 61 -28 39 -30 50 -30 126 0 76 2 87 30 126
68 96 205 123 306 60 l51 -32 34 26 c19 14 34 32 34 39 0 16 -60 59 -114 81
-48 20 -166 28 -219 15z M13803 677 c2 -7 57 -99 121 -205 l116 -192 0 -110 0
-110 60 0 60 0 0 115 0 115 108 177 c153 250 144 223 75 223 l-58 -1 -89 -149
c-49 -83 -92 -150 -95 -150 -3 0 -46 68 -95 150 l-88 150 -60 0 c-45 0 -59 -3
-55 -13z M15650 375 l0 -315 60 0 60 0 0 120 0 120 155 0 155 0 0 50 0 50
-155 0 -155 0 0 95 0 95 170 0 170 0 0 50 0 50 -230 0 -230 0 0 -315z M16800
675 c-95 -27 -161 -81 -208 -170 -23 -43 -27 -62 -27 -140 0 -78 4 -97 27
-140 47 -90 111 -142 212 -171 115 -32 243 -3 330 77 73 67 100 129 100 234 0
62 -5 92 -23 133 -30 66 -113 144 -178 166 -70 25 -168 29 -233 11z m210 -118
c30 -16 54 -39 75 -72 26 -42 30 -58 30 -120 0 -62 -4 -78 -30 -120 -82 -133
-286 -134 -373 -3 -39 60 -44 164 -9 228 58 109 190 146 307 87z M17740 376
l0 -316 60 0 60 0 0 90 0 91 87 -3 87 -3 61 -87 60 -87 63 -1 c48 0 61 3 56
12 -5 7 -36 53 -71 102 l-63 89 28 17 c71 43 107 118 100 210 -6 81 -40 129
-115 167 -56 27 -64 28 -235 31 l-178 4 0 -316z m346 198 c47 -22 64 -50 64
-102 0 -98 -52 -132 -200 -132 l-90 0 0 125 0 125 96 0 c68 0 106 -5 130 -16z
M19560 375 l0 -315 168 0 c164 0 235 10 292 40 57 30 100 74 129 132 27 53 31
72 31 143 0 71 -4 90 -31 143 -29 58 -72 102 -129 132 -57 30 -128 40 -292 40
l-168 0 0 -315z m380 194 c57 -26 77 -44 102 -94 40 -77 21 -203 -39 -257 -46
-42 -104 -58 -215 -58 l-108 0 0 215 0 215 108 0 c86 0 116 -4 152 -21z
M20680 375 l0 -315 60 0 60 0 0 315 0 315 -60 0 -60 0 0 -315z M21555 677
c-100 -26 -172 -84 -216 -173 -20 -41 -24 -64 -24 -139 0 -105 22 -162 88
-228 108 -108 309 -126 454 -41 l43 25 0 124 0 125 -60 0 -60 0 0 -99 0 -99
-32 -13 c-53 -22 -149 -17 -205 12 -72 38 -106 93 -111 179 -3 57 0 78 18 115
58 120 223 158 344 78 l39 -25 34 35 35 34 -23 23 c-67 64 -216 95 -324 67z
M22420 375 l0 -315 60 0 60 0 0 315 0 315 -60 0 -60 0 0 -315z M23010 640 l0
-50 105 0 105 0 0 -265 0 -265 60 0 60 0 0 265 0 265 105 0 105 0 0 50 0 50
-270 0 -270 0 0 -50z M24217 683 c-9 -15 -277 -613 -277 -618 0 -3 26 -5 59
-5 l58 0 31 73 30 72 158 0 158 0 31 -72 30 -73 62 0 62 0 -85 188 c-47 103
-111 244 -142 315 l-57 127 -57 0 c-31 0 -59 -3 -61 -7z m123 -259 c28 -64 49
-119 47 -121 -3 -2 -54 -2 -115 -1 l-110 3 56 132 c38 89 59 128 64 119 4 -8
31 -67 58 -132z M25080 375 l0 -315 225 0 225 0 0 50 0 50 -165 0 -165 0 0
265 0 265 -60 0 -60 0 0 -315z M26897 676 c-96 -26 -147 -87 -147 -174 0 -103
45 -141 215 -186 113 -30 142 -46 151 -80 8 -32 -10 -62 -48 -82 -48 -25 -168
-15 -236 19 -30 15 -55 27 -58 27 -2 0 -13 -19 -25 -41 -23 -45 -23 -44 33
-74 37 -20 144 -45 195 -45 62 0 138 19 175 43 54 37 78 82 78 148 0 98 -47
136 -225 183 -130 35 -166 68 -135 127 28 51 136 64 241 29 34 -12 62 -20 63
-18 1 2 9 20 19 40 16 37 16 38 -6 52 -62 41 -200 56 -290 32z M27930 675
c-95 -27 -161 -81 -208 -170 -23 -43 -27 -62 -27 -140 0 -78 4 -97 27 -140 47
-90 111 -142 212 -171 115 -32 243 -3 330 77 73 67 100 129 100 234 0 62 -5
92 -23 133 -30 66 -113 144 -178 166 -70 25 -168 29 -233 11z m210 -118 c30
-16 54 -39 75 -72 26 -42 30 -58 30 -120 0 -62 -4 -78 -30 -120 -82 -133 -286
-134 -373 -3 -39 60 -44 164 -9 228 58 109 190 146 307 87z M28870 375 l0
-315 225 0 225 0 0 50 0 50 -165 0 -165 0 0 265 0 265 -60 0 -60 0 0 -315z
M29792 463 c4 -241 8 -262 58 -326 12 -15 45 -40 73 -54 45 -24 64 -27 142
-27 78 0 97 3 142 27 28 15 64 42 78 61 47 62 55 110 55 338 l0 208 -54 0 -54
0 -4 -212 c-3 -233 -9 -255 -70 -301 -38 -28 -130 -29 -178 -2 -64 37 -70 63
-70 303 l0 212 -61 0 -61 0 4 -227z M30800 640 l0 -50 105 0 105 0 0 -265 0
-265 60 0 60 0 0 265 0 265 105 0 105 0 0 50 0 50 -270 0 -270 0 0 -50z
M31800 375 l0 -315 60 0 60 0 0 315 0 315 -60 0 -60 0 0 -315z M32670 675
c-95 -27 -161 -81 -208 -170 -23 -43 -27 -62 -27 -140 0 -78 4 -97 27 -140 47
-90 111 -142 212 -171 115 -32 243 -3 330 77 73 67 100 129 100 234 0 62 -5
92 -23 133 -30 66 -113 144 -178 166 -70 25 -168 29 -233 11z m210 -118 c30
-16 54 -39 75 -72 26 -42 30 -58 30 -120 0 -62 -4 -78 -30 -120 -82 -133 -286
-134 -373 -3 -39 60 -44 164 -9 228 58 109 190 146 307 87z M33610 375 l0
-315 60 0 60 0 2 211 3 211 170 -211 170 -210 48 -1 47 0 0 315 0 315 -55 0
-55 0 -2 -212 -3 -211 -170 211 -170 211 -52 0 -53 1 0 -315z M34837 676 c-96
-26 -147 -87 -147 -174 0 -103 45 -141 215 -186 113 -30 142 -46 151 -80 8
-32 -10 -62 -48 -82 -48 -25 -168 -15 -236 19 -30 15 -55 27 -58 27 -2 0 -13
-19 -25 -41 -23 -45 -23 -44 33 -74 37 -20 144 -45 195 -45 62 0 138 19 175
43 54 37 78 82 78 148 0 98 -47 136 -225 183 -130 35 -166 68 -135 127 28 51
136 64 241 29 34 -12 62 -20 63 -18 1 2 9 20 19 40 16 37 16 38 -6 52 -62 41
-200 56 -290 32z"/>
</g></g>
</svg>